<?xml version="1.0" encoding="utf-8"?>
<svg viewBox="0 0 570 178.58294999999998" xml:space="preserve" version="1.1" xmlns="http://www.w3.org/2000/svg"
    xmlns:xlink="http://www.w3.org/1999/xlink">
    <defs>
        <style type="text/css">
            .bg {
                fill: #f5f5f5;
                stroke: none;
            }

            .line {
                fill: none;
                stroke: #999;
                stroke-width: 0.05;
            }

            .firstCal {
                fill: #000;
                stroke: None;
                font-family: "Anjoman", vazirmatn;
                font-weight: 100;
                font-size: 17.638861940627592px;
                text-anchor: middle;
            }

            .holiday {
                fill: #000;
                stroke: None;
                font-family: "Anjoman", vazirmatn;
                font-weight: 100;
                font-size: 17.638861940627592px;
                text-anchor: middle;
            }

            .firstCalWeekdays {
                fill: #000;
                stroke: None;
                font-family: "Anjoman", vazirmatn;
                font-weight: 200;
                font-size: 2.4694406716878627px;
                text-anchor: middle;
            }

            .firstCalWeekdaysHoliday {
                fill: #000;
                stroke: None;
                font-family: "Anjoman", vazirmatn;
                font-weight: 200;
                font-size: 2.4694406716878627px;
                text-anchor: middle;
            }

            .secondCal {
                fill: #000;
                stroke: None;
                font-family: "Anjoman", vazirmatn;
                font-weight: 100;
                font-size: 2.4694406716878627px;
                text-anchor: start;
                direction: ltr;
            }

            .thirdCal {
                fill: #000;
                stroke: None;
                font-family: "Anjoman", vazirmatn;
                font-weight: 100;
                font-size: 2.4694406716878627px;
                text-anchor: end;
                direction: rtl;
            }

            .personalEvents {
                fill: #000;
                stroke: None;
                font-family: "Anjoman", vazirmatn;
                font-weight: 200;
                font-size: 2.116663432875311px;
                text-anchor: start;
                direction: rtl;
            }

            .icon {
                fill: #000;
                stroke: None;
            }

            .monthAndWeek {
                fill: #000;
                stroke: None;
                font-family: "Anjoman", vazirmatn;
                font-weight: 300;
                font-size: 2.4694406716878627px;
                text-anchor: end;
                direction: rtl;
            }
        </style>

    </defs>
    <g>
        <rect x="0" y="0" width="63" height="63" class="bg" transform="scale(2.83465)" />
        <line x1="0" y1="8" x2="63" y2="8" transform="scale(2.83465)" class="line" />
        <line x1="25" y1="13" x2="63" y2="13" transform="scale(2.83465)" class="line" />
        <line x1="25" y1="18" x2="63" y2="18" transform="scale(2.83465)" class="line" />
        <line x1="25" y1="23" x2="63" y2="23" transform="scale(2.83465)" class="line" />
        <line x1="25" y1="28" x2="63" y2="28" transform="scale(2.83465)" class="line" />
        <line x1="0" y1="33" x2="63" y2="33" transform="scale(2.83465)" class="line" />
        <line x1="25" y1="38" x2="63" y2="38" transform="scale(2.83465)" class="line" />
        <line x1="25" y1="43" x2="63" y2="43" transform="scale(2.83465)" class="line" />
        <line x1="25" y1="48" x2="63" y2="48" transform="scale(2.83465)" class="line" />
        <line x1="25" y1="53" x2="63" y2="53" transform="scale(2.83465)" class="line" />
        <line x1="0" y1="58" x2="63" y2="58" transform="scale(2.83465)" class="line" />
        <text x="13.750000000000002" y="24.67429841426631" transform="scale(2.83465)" class="firstCal">۳۰</text>
        <text x="13.750000000000002" y="28.143739085954174" transform="scale(2.83465)"
            class="firstCalWeekdays">شنبه</text>
        <text x="13.750000000000002" y="49.67429841426631" transform="scale(2.83465)" class="firstCal">۳۱</text>
        <text x="13.750000000000002" y="53.143739085954174" transform="scale(2.83465)"
            class="firstCalWeekdays">یک‌شنبه</text>
        <text x="25.5" y="11.327262625015434" transform="scale(2.83465)" class="secondCal">June 20, 2026</text>
        <text x="25.5" y="36.327262625015436" transform="scale(2.83465)" class="secondCal">21</text>
        <text x="25.5" y="16.327262625015432" transform="scale(2.83465)" class="thirdCal">٥ محرم ١٤٤٧</text>
        <text x="25.5" y="41.327262625015436" transform="scale(2.83465)" class="thirdCal">٦</text>
        <text x="25.5" y="6.327262625015434" transform="scale(2.83465)" class="monthAndWeek">هفته ۱۴ / خرداد و
            تیر</text>

    </g>

    <g transform="translate(195)">
        <rect x="0" y="0" width="63" height="63" class="bg" transform="scale(2.83465)" />
        <line x1="0" y1="8" x2="63" y2="8" transform="scale(2.83465)" class="line" />
        <line x1="25" y1="13" x2="63" y2="13" transform="scale(2.83465)" class="line" />
        <line x1="25" y1="18" x2="63" y2="18" transform="scale(2.83465)" class="line" />
        <line x1="25" y1="23" x2="63" y2="23" transform="scale(2.83465)" class="line" />
        <line x1="25" y1="28" x2="63" y2="28" transform="scale(2.83465)" class="line" />
        <line x1="0" y1="33" x2="63" y2="33" transform="scale(2.83465)" class="line" />
        <line x1="25" y1="38" x2="63" y2="38" transform="scale(2.83465)" class="line" />
        <line x1="25" y1="43" x2="63" y2="43" transform="scale(2.83465)" class="line" />
        <line x1="25" y1="48" x2="63" y2="48" transform="scale(2.83465)" class="line" />
        <line x1="25" y1="53" x2="63" y2="53" transform="scale(2.83465)" class="line" />
        <line x1="0" y1="58" x2="63" y2="58" transform="scale(2.83465)" class="line" />
        <text x="13.750000000000002" y="24.67429841426631" transform="scale(2.83465)" class="firstCal">۳۰</text>
        <text x="13.750000000000002" y="28.143739085954174" transform="scale(2.83465)"
            class="firstCalWeekdays">شنبه</text>
        <text x="13.750000000000002" y="49.67429841426631" transform="scale(2.83465)" class="firstCal">۳۱</text>
        <text x="13.750000000000002" y="53.143739085954174" transform="scale(2.83465)"
            class="firstCalWeekdays">یک‌شنبه</text>
        <text x="25.5" y="11.327262625015434" transform="scale(2.83465)" class="secondCal">June 20, 2026</text>
        <text x="25.5" y="36.327262625015436" transform="scale(2.83465)" class="secondCal">June 21, 2026</text>
        <text x="25.5" y="16.327262625015432" transform="scale(2.83465)" class="thirdCal">٥ محرم ١٤٤٧</text>
        <text x="25.5" y="41.327262625015436" transform="scale(2.83465)" class="thirdCal">٦ محرم ١٤٤٧</text>
        <text x="25.5" y="6.327262625015434" transform="scale(2.83465)" class="monthAndWeek">هفته ۱۴ / خرداد و
            تیر</text>
    </g>


    <g transform="translate(390)">
        <rect x="0" y="0" width="63" height="63" class="bg" transform="scale(2.83465)" />
        <line x1="0" y1="8" x2="63" y2="8" transform="scale(2.83465)" class="line" />
        <line x1="25" y1="13" x2="63" y2="13" transform="scale(2.83465)" class="line" />
        <line x1="25" y1="18" x2="63" y2="18" transform="scale(2.83465)" class="line" />
        <line x1="25" y1="23" x2="63" y2="23" transform="scale(2.83465)" class="line" />
        <line x1="25" y1="28" x2="63" y2="28" transform="scale(2.83465)" class="line" />
        <line x1="0" y1="33" x2="63" y2="33" transform="scale(2.83465)" class="line" />
        <line x1="25" y1="38" x2="63" y2="38" transform="scale(2.83465)" class="line" />
        <line x1="25" y1="43" x2="63" y2="43" transform="scale(2.83465)" class="line" />
        <line x1="25" y1="48" x2="63" y2="48" transform="scale(2.83465)" class="line" />
        <line x1="25" y1="53" x2="63" y2="53" transform="scale(2.83465)" class="line" />
        <line x1="0" y1="58" x2="63" y2="58" transform="scale(2.83465)" class="line" />
        <text x="13.750000000000002" y="24.67429841426631" transform="scale(2.83465)" class="firstCal">۳۰</text>
        <text x="13.750000000000002" y="28.143739085954174" transform="scale(2.83465)"
            class="firstCalWeekdays">شنبه</text>
        <text x="13.750000000000002" y="49.67429841426631" transform="scale(2.83465)" class="firstCal">۳۱</text>
        <text x="13.750000000000002" y="53.143739085954174" transform="scale(2.83465)"
            class="firstCalWeekdays">یک‌شنبه</text>
        <text x="25.5" y="11.327262625015434" transform="scale(2.83465)" class="secondCal">20</text>
        <text x="25.5" y="36.327262625015436" transform="scale(2.83465)" class="secondCal">21</text>
        <text x="25.5" y="16.327262625015432" transform="scale(2.83465)" class="thirdCal">٥</text>
        <text x="25.5" y="41.327262625015436" transform="scale(2.83465)" class="thirdCal">٦</text>
        <text x="25.5" y="6.327262625015434" transform="scale(2.83465)" class="monthAndWeek">هفته ۱۴ / خرداد و
            تیر</text>

    </g>
</svg>